<svg width="18" height="18" viewBox="0 0 18 18" fill="none" xmlns="http://www.w3.org/2000/svg">
<path d="M8.03587 1.6084H1.92873C1.75194 1.6084 1.6073 1.75304 1.6073 1.92983V8.03697C1.6073 8.21376 1.75194 8.3584 1.92873 8.3584H8.03587C8.21266 8.3584 8.3573 8.21376 8.3573 8.03697V1.92983C8.3573 1.75304 8.21266 1.6084 8.03587 1.6084ZM6.99123 6.99233H2.97337V2.97447H6.99123V6.99233ZM16.0716 1.6084H9.96444C9.78766 1.6084 9.64301 1.75304 9.64301 1.92983V8.03697C9.64301 8.21376 9.78766 8.3584 9.96444 8.3584H16.0716C16.2484 8.3584 16.393 8.21376 16.393 8.03697V1.92983C16.393 1.75304 16.2484 1.6084 16.0716 1.6084ZM15.0269 6.99233H11.0091V2.97447H15.0269V6.99233ZM8.03587 9.64411H1.92873C1.75194 9.64411 1.6073 9.78876 1.6073 9.96554V16.0727C1.6073 16.2495 1.75194 16.3941 1.92873 16.3941H8.03587C8.21266 16.3941 8.3573 16.2495 8.3573 16.0727V9.96554C8.3573 9.78876 8.21266 9.64411 8.03587 9.64411ZM6.99123 15.028H2.97337V11.0102H6.99123V15.028ZM16.0716 9.64411H9.96444C9.78766 9.64411 9.64301 9.78876 9.64301 9.96554V16.0727C9.64301 16.2495 9.78766 16.3941 9.96444 16.3941H16.0716C16.2484 16.3941 16.393 16.2495 16.393 16.0727V9.96554C16.393 9.78876 16.2484 9.64411 16.0716 9.64411ZM15.0269 15.028H11.0091V11.0102H15.0269V15.028Z" fill="#1E1E1E"/>
</svg>
